<?xml version="1.0" encoding="UTF-8" standalone="no"?>
<!-- Created with Inkscape (http://www.inkscape.org/) -->

<svg
   width="94.933289mm"
   height="58.26424mm"
   viewBox="0 0 94.933289 58.26424"
   version="1.1"
   id="svg1"
   xml:space="preserve"
   inkscape:version="1.3.2 (091e20e, 2023-11-25, custom)"
   sodipodi:docname="favicons.svg"
   xmlns:inkscape="http://www.inkscape.org/namespaces/inkscape"
   xmlns:sodipodi="http://sodipodi.sourceforge.net/DTD/sodipodi-0.dtd"
   xmlns="http://www.w3.org/2000/svg"
   xmlns:svg="http://www.w3.org/2000/svg"><sodipodi:namedview
     id="namedview1"
     pagecolor="#ffffff"
     bordercolor="#000000"
     borderopacity="0.25"
     inkscape:showpageshadow="2"
     inkscape:pageopacity="0.0"
     inkscape:pagecheckerboard="0"
     inkscape:deskcolor="#d1d1d1"
     inkscape:document-units="mm"
     showguides="true"
     inkscape:zoom="0.4894542"
     inkscape:cx="3381.3174"
     inkscape:cy="223.71859"
     inkscape:window-width="1920"
     inkscape:window-height="991"
     inkscape:window-x="-9"
     inkscape:window-y="2337"
     inkscape:window-maximized="1"
     inkscape:current-layer="layer1" /><defs
     id="defs1" /><g
     inkscape:label="Ebene 1"
     inkscape:groupmode="layer"
     id="layer1"
     transform="translate(-728.09651,42.322497)"><rect
       style="fill:#bbbbbb;fill-opacity:1;stroke:none;stroke-width:0.2;stroke-miterlimit:1.4;paint-order:markers fill stroke"
       id="rect254"
       width="277.74915"
       height="325.96255"
       x="450.34738"
       y="-71.354996" /><g
       id="g259"><g
         id="g256"><path
           style="font-size:41.722px;font-family:'MS PGothic';-inkscape-font-specification:'MS PGothic, Normal';letter-spacing:0px;stroke-width:0.2;stroke-miterlimit:1.4;paint-order:markers fill stroke"
           d="m 798.1325,1.762764 c 0,-4.78065 1.33482,-8.42046 4.00447,-10.919429 2.43749,-2.28167 5.3973,-3.42251 8.87945,-3.42251 3.48213,0 6.32588,1.03219 8.53124,3.09656 1.85714,1.738409 2.84375,3.857109 2.95982,6.356079 h -4.17857 c -0.11606,-1.84707 -0.81249,-3.36818 -2.08928,-4.56334 -1.27679,-1.19516 -3.01786,-1.792739 -5.22321,-1.792739 -2.20536,0 -4.06249,0.706229 -5.57143,2.118689 -2.08928,1.95572 -3.13393,4.99795 -3.13393,9.12669 0,3.91144 1.10268,6.89934 3.30804,8.96371 1.50893,1.412471 3.59821,2.118701 6.26785,2.118701 1.97322,0 3.59822,-0.597579 4.87501,-1.79275 1.27677,-1.195161 2.03123,-2.44465 2.26337,-3.748461 v -4.1559 h -5.0491 v -1.54828 -1.54828 h 9.05356 V 15.94174 h -2.95981 l -1.04465,-2.770615 c -1.9732,1.847077 -4.46874,2.770615 -7.48659,2.770615 -3.71428,0 -6.73215,-1.086515 -9.05358,-3.259545 C 799.58339,9.965924 798.1325,6.326114 798.1325,1.762764 Z"
           id="path64"
           sodipodi:nodetypes="ssssccssssssscccccccccsss" /><path
           style="font-size:41.722px;font-family:'MS PGothic';-inkscape-font-specification:'MS PGothic, Normal';letter-spacing:0px;stroke-width:0.2;stroke-miterlimit:1.4;paint-order:markers fill stroke"
           d="m 774.33915,-12.579175 h 4.07442 l 14.09645,22.001829 v -22.001829 h 3.74846 v 27.868989 h -4.07441 l -14.09645,-22.00184 v 22.00184 h -3.74847 z"
           id="path65"
           sodipodi:nodetypes="ccccccccccc" /><path
           style="font-size:41.722px;font-family:'MS PGothic';-inkscape-font-specification:'MS PGothic, Normal';letter-spacing:0px;stroke-width:0.2;stroke-miterlimit:1.4;paint-order:markers fill stroke"
           d="m 800.702,-42.322422 h 22.32778 v 3.09655 h -9.28966 v 24.772438 h -3.74846 V -39.225872 H 800.702 Z"
           id="path67" /></g><path
         style="font-size:41.722px;font-family:'MS PGothic';-inkscape-font-specification:'MS PGothic, Normal';letter-spacing:0px;fill:#000000;fill-opacity:1;stroke-width:0.2;stroke-miterlimit:1.4;paint-order:markers fill stroke"
         d="m 790.50756,-26.71898 -2.11873,3.12384 6.20169,9.142078 h 4.23747 z"
         id="path256" /></g><g
       id="g258"
       style="fill:#08558a;fill-opacity:1"><path
         style="font-size:41.722px;font-family:'MS PGothic';-inkscape-font-specification:'MS PGothic, Normal';letter-spacing:0px;fill:#08558a;fill-opacity:1;stroke-width:0.2;stroke-miterlimit:1.4;paint-order:markers fill stroke"
         d="m 775.68521,-42.322162 9.45265,13.93455 -9.45265,13.93455 h 4.23747 l 0.57516,-0.84801 6.75876,-9.963216 2.11873,-3.123324 0.52917,-0.780314 7.29154,-10.752315 0.002,10e-4 1.63039,-2.402954 h -4.23747 l -7.33391,10.811226 -7.33392,-10.811226 z"
         id="path85" /><g
         id="g257"
         transform="translate(475.88439,-56.170929)"
         style="fill:#08558a;fill-opacity:1"><path
           id="path66"
           style="font-size:41.722px;font-family:'MS PGothic';-inkscape-font-specification:'MS PGothic, Normal';letter-spacing:0px;fill:#08558a;fill-opacity:1;stroke-width:0.2;stroke-miterlimit:1.4;paint-order:markers fill stroke"
           d="m 748.71284,-12.579175 h 15.27753 c 2.17302,0 3.96576,0.70623 5.37822,2.11869 1.41247,1.412469 2.1187,2.879249 2.1187,5.378219 0,2.49897 -0.70623,4.45469 -2.1187,5.86716 -0.76055,0.76055 -1.84706,1.24948 -3.25953,1.46679 l 6.35609,13.038133 h -4.07442 L 762.52358,2.740614 H 752.4613 v 12.549203 h -3.74846 V 1.192334 Z m 3.74846,3.096549 v 9.12668 h 11.20311 c 1.08651,0 2.01005,-0.38028 2.77061,-1.14083 0.76055,-0.76056 1.14083,-1.95572 1.14083,-3.58549 0,-1.52111 -0.4346,-2.22733 -1.30381,-3.09654 -0.86921,-0.86921 -1.90139,-1.30382 -3.09656,-1.30382 z"
           sodipodi:nodetypes="csssscccccccccccsssssc"
           transform="translate(-475.88439,56.170929)" /><path
           style="font-size:41.722px;font-family:'MS PGothic';-inkscape-font-specification:'MS PGothic, Normal';letter-spacing:0px;fill:#08558a;fill-opacity:1;stroke-width:0.2;stroke-miterlimit:1.4;paint-order:markers fill stroke"
           d="m 728.09654,-42.322162 h 5.05227 l 7.49692,21.67588 7.49692,-21.67588 h 5.05228 v 27.868988 h -3.74846 v -21.349928 l -7.49693,21.349928 h -2.60762 L 731.845,-35.803102 v 21.349928 h -3.74846 z"
           id="path68"
           transform="translate(-475.88439,56.170929)" /><path
           style="font-size:41.722px;font-family:'MS PGothic';-inkscape-font-specification:'MS PGothic, Normal';letter-spacing:0px;fill:#08558a;fill-opacity:1;stroke-width:0.2;stroke-miterlimit:1.4;paint-order:markers fill stroke"
           d="m 755.06892,-42.322422 h 18.7423 v 3.09655 h -14.99384 v 9.12643 h 13.2011 v 1.54827 1.54828 h -13.2011 v 9.4529 h 14.99384 v 3.096558 h -18.7423 z"
           id="path69"
           sodipodi:nodetypes="cccccccccccccc"
           transform="translate(-475.88439,56.170929)" /><path
           style="font-size:41.722px;font-family:'MS PGothic';-inkscape-font-specification:'MS PGothic, Normal';letter-spacing:0px;fill:#08558a;fill-opacity:1;stroke-width:0.2;stroke-miterlimit:1.4;paint-order:markers fill stroke"
           d="m 728.09654,-12.579175 h 18.7423 v 3.096549 H 731.845 v 9.12643 h 13.2011 v 1.54827 1.54828 H 731.845 v 9.452901 h 14.99384 v 3.096558 h -18.7423 z"
           id="path70"
           sodipodi:nodetypes="cccccccccccccc"
           transform="translate(-475.88439,56.170929)" /><path
           id="path86"
           style="font-size:41.722px;font-family:'MS PGothic';-inkscape-font-specification:'MS PGothic, Normal';letter-spacing:0px;fill:#08558a;fill-opacity:1;stroke-width:0.2;stroke-miterlimit:1.4;paint-order:markers fill stroke"
           d="m 299.80085,13.848431 9.45265,13.93455 -9.45265,13.93455 h 4.23746 l 18.90531,-27.8691 h -4.23747 l -7.33392,10.811226 -7.33392,-10.811226 z"
           sodipodi:nodetypes="ccccccccc" /></g></g></g></svg>
