<?xml version="1.0" encoding="UTF-8" standalone="no"?>
<!-- Created with Inkscape (http://www.inkscape.org/) -->

<svg
   width="187.50383mm"
   height="39.057999mm"
   viewBox="0 0 187.50383 39.057999"
   version="1.1"
   id="svg1"
   xml:space="preserve"
   sodipodi:docname="mexterng-logo.svg"
   inkscape:version="1.3.2 (091e20e, 2023-11-25, custom)"
   xmlns:inkscape="http://www.inkscape.org/namespaces/inkscape"
   xmlns:sodipodi="http://sodipodi.sourceforge.net/DTD/sodipodi-0.dtd"
   xmlns="http://www.w3.org/2000/svg"
   xmlns:svg="http://www.w3.org/2000/svg"><sodipodi:namedview
     id="namedview1"
     pagecolor="#ffffff"
     bordercolor="#000000"
     borderopacity="0.25"
     inkscape:showpageshadow="2"
     inkscape:pageopacity="0.0"
     inkscape:pagecheckerboard="0"
     inkscape:deskcolor="#d1d1d1"
     inkscape:document-units="mm"
     showguides="true"
     inkscape:zoom="1.0526641"
     inkscape:cx="423.21193"
     inkscape:cy="88.822258"
     inkscape:window-width="1920"
     inkscape:window-height="991"
     inkscape:window-x="-9"
     inkscape:window-y="-9"
     inkscape:window-maximized="1"
     inkscape:current-layer="layer1" /><defs
     id="defs1" /><g
     inkscape:label="Ebene 1"
     inkscape:groupmode="layer"
     id="layer1"
     transform="translate(-488.89512,42.974089)"><g
       id="g100"
       style="fill:#000000;fill-opacity:1"><path
         style="font-size:41.722px;font-family:'MS PGothic';-inkscape-font-specification:'MS PGothic, Normal';letter-spacing:0px;fill:#000000;fill-opacity:1;stroke-width:0.2;stroke-miterlimit:1.4;paint-order:markers fill stroke"
         d="m 653.09293,-28.632149 c 0,-4.78065 1.24949,-8.42046 3.74846,-10.91943 2.28167,-2.28167 5.05227,-3.42251 8.3118,-3.42251 3.25953,0 5.92148,1.03219 7.98585,3.09656 1.73842,1.73841 2.66195,3.85711 2.7706,6.35608 h -3.91143 c -0.10865,-1.84707 -0.76056,-3.36818 -1.95572,-4.56334 -1.19516,-1.19516 -2.82493,-1.79274 -4.8893,-1.79274 -2.06437,0 -3.80278,0.70623 -5.21525,2.11869 -1.95572,1.95572 -2.93358,4.99795 -2.93358,9.12669 0,3.91144 1.03219,6.89934 3.09656,8.96371 1.41246,1.41247 3.36818,2.1187 5.86715,2.1187 1.84707,0 3.36819,-0.59758 4.56335,-1.79275 1.19516,-1.19516 1.90139,-2.44465 2.11869,-3.74846 v -4.1559 h -4.72632 v -1.54828 -1.54828 h 8.47478 v 15.890235 h -2.7706 l -0.97786,-2.770615 c -1.84707,1.847077 -4.18306,2.770615 -7.00799,2.770615 -3.47683,0 -6.30176,-1.086515 -8.47478,-3.259545 -2.71627,-2.71627 -4.07441,-6.35608 -4.07441,-10.91943 z"
         id="path57"
         sodipodi:nodetypes="ssssccssssssscccccccccsss" /><path
         style="font-size:41.722px;font-family:'MS PGothic';-inkscape-font-specification:'MS PGothic, Normal';letter-spacing:0px;fill:#000000;fill-opacity:1;stroke-width:0.2;stroke-miterlimit:1.4;paint-order:markers fill stroke"
         d="m 630.35794,-42.566639 h 4.07442 l 13.03812,22.00183 v -22.00183 h 3.74846 v 27.868989 h -4.07441 l -13.03812,-22.001839 v 22.001839 h -3.74847 z"
         id="path58" /><path
         style="font-size:41.722px;font-family:'MS PGothic';-inkscape-font-specification:'MS PGothic, Normal';letter-spacing:0px;fill:#000000;fill-opacity:1;stroke-width:0.2;stroke-miterlimit:1.4;paint-order:markers fill stroke"
         d="m 561.50104,-42.566639 h 22.32778 v 3.09655 h -9.28966 v 24.772438 h -3.74846 v -24.772438 h -9.28966 z"
         id="path60" /><path
         style="font-size:41.722px;font-family:'MS PGothic';-inkscape-font-specification:'MS PGothic, Normal';letter-spacing:0px;fill:#000000;fill-opacity:1;stroke-width:0.2;stroke-miterlimit:1.4;paint-order:markers fill stroke"
         d="m 551.30618,-26.963457 -2.11873,3.12384 6.20169,9.142078 h 4.23747 z"
         id="path96" /></g><g
       id="g99"
       style="fill:#025b82;fill-opacity:1"><path
         id="path59"
         style="font-size:41.722px;font-family:'MS PGothic';-inkscape-font-specification:'MS PGothic, Normal';letter-spacing:0px;fill:#025b82;fill-opacity:1;stroke-width:0.2;stroke-miterlimit:1.4;paint-order:markers fill stroke"
         d="m 606.31913,-42.566639 h 13.69003 c 2.17302,0 3.96576,0.70623 5.37822,2.11869 1.41247,1.41247 2.1187,2.87925 2.1187,5.37822 0,2.49897 -0.70623,4.45469 -2.1187,5.86716 -0.76055,0.76055 -1.84706,1.24948 -3.25953,1.46679 l 6.35609,13.038132 h -4.07442 l -5.86715,-12.549202 h -8.47478 v 12.549202 h -3.74846 v -14.097482 z m 3.74846,3.09655 v 9.12668 h 9.61561 c 1.08651,0 2.01005,-0.38028 2.77061,-1.14083 0.76055,-0.76056 1.14083,-1.95572 1.14083,-3.58549 0,-1.52111 -0.4346,-2.22733 -1.30381,-3.09654 -0.86921,-0.86921 -1.90139,-1.30382 -3.09656,-1.30382 z"
         sodipodi:nodetypes="csssscccccccccccsssssc" /><path
         style="font-size:41.722px;font-family:'MS PGothic';-inkscape-font-specification:'MS PGothic, Normal';letter-spacing:0px;fill:#025b82;fill-opacity:1;stroke-width:0.2;stroke-miterlimit:1.4;paint-order:markers fill stroke"
         d="m 488.89515,-42.566379 h 5.05227 l 7.49692,21.67588 7.49692,-21.67588 h 5.05228 v 27.868988 h -3.74846 v -21.349928 l -7.49693,21.349928 h -2.60762 l -7.49692,-21.349928 v 21.349928 h -3.74846 z"
         id="path61" /><path
         style="font-size:41.722px;font-family:'MS PGothic';-inkscape-font-specification:'MS PGothic, Normal';letter-spacing:0px;fill:#025b82;fill-opacity:1;stroke-width:0.2;stroke-miterlimit:1.4;paint-order:markers fill stroke"
         d="m 515.86753,-42.566639 h 18.7423 v 3.09655 h -14.99384 v 9.12643 h 13.2011 v 1.54827 1.54828 h -13.2011 v 9.4529 h 14.99384 v 3.096558 h -18.7423 z"
         id="path62"
         sodipodi:nodetypes="cccccccccccccc" /><path
         style="font-size:41.722px;font-family:'MS PGothic';-inkscape-font-specification:'MS PGothic, Normal';letter-spacing:0px;fill:#025b82;fill-opacity:1;stroke-width:0.2;stroke-miterlimit:1.4;paint-order:markers fill stroke"
         d="m 585.70282,-42.566379 h 18.7423 v 3.09655 h -14.99384 v 9.12643 h 13.2011 v 1.54827 1.54828 h -13.2011 v 9.4529 h 14.99384 v 3.096558 h -18.7423 z"
         id="path63"
         sodipodi:nodetypes="cccccccccccccc" /><path
         style="font-size:41.722px;font-family:'MS PGothic';-inkscape-font-specification:'MS PGothic, Normal';letter-spacing:0px;fill:#025b82;fill-opacity:1;stroke-width:0.2;stroke-miterlimit:1.4;paint-order:markers fill stroke"
         d="m 536.48383,-42.566639 9.45265,13.93455 -9.45265,13.93455 h 4.23747 l 0.57516,-0.84801 6.75876,-9.963216 2.11873,-3.123324 0.52917,-0.780314 7.29154,-10.752315 0.002,10e-4 1.63039,-2.402954 h -4.23747 l -7.33391,10.811226 -7.33392,-10.811226 z"
         id="path71" /></g><g
       id="g137"
       transform="matrix(0.9729304,0,0,0.9729304,13.234145,-2.1322113)"
       style="stroke-width:1.02782"><g
         id="g4"
         style="stroke-width:1.02782"><path
           style="font-size:10.5148px;font-family:'MS PGothic';-inkscape-font-specification:'MS PGothic, Normal';letter-spacing:-0.397448px;word-spacing:0.794896px;stroke-width:0.205565;stroke-miterlimit:1.4;paint-order:markers fill stroke"
           d="m 675.74153,-5.4069836 c 0,-1.2048209 0.3149,-2.1221276 0.94469,-2.7519203 0.57503,-0.5750281 1.27328,-0.8625422 2.09475,-0.8625422 0.82147,0 1.49233,0.2601318 2.01259,0.7803953 0.43812,0.4381167 0.67087,0.9720714 0.69825,1.6018641 h -0.98576 c -0.0274,-0.465499 -0.19169,-0.8488511 -0.49288,-1.1500563 -0.30121,-0.3012052 -0.71194,-0.4518078 -1.2322,-0.4518078 -0.52027,0 -0.95838,0.1779849 -1.31435,0.5339547 -0.49289,0.4928813 -0.73933,1.2595854 -0.73933,2.3001125 0,0.9857625 0.26013,1.7387756 0.7804,2.2590391 0.35597,0.3559698 0.84885,0.5339547 1.47864,0.5339547 0.4655,0 0.84885,-0.1506026 1.15006,-0.4518078 0.30121,-0.3012053 0.47919,-0.6161016 0.53395,-0.9446891 v -0.657175 h -1.19113 V -5.448057 h 2.13582 v 3.6144625 h -0.69825 l -0.24644,-0.6982484 c -0.46549,0.4654989 -1.05421,0.6982484 -1.76615,0.6982484 -0.87623,0 -1.58817,-0.2738229 -2.13582,-0.8214688 -0.68456,-0.6845573 -1.02684,-1.601864 -1.02684,-2.7519203 z"
           id="path136" /><path
           style="font-size:10.5148px;font-family:'MS PGothic';-inkscape-font-specification:'MS PGothic, Normal';letter-spacing:-0.397448px;word-spacing:0.794896px;stroke-width:0.205565;stroke-miterlimit:1.4;paint-order:markers fill stroke"
           d="m 669.48509,-8.9392992 h 1.02683 l 3.28588,5.5449141 v -5.5449141 h 0.94469 v 7.0235578 h -1.02684 l -3.28587,-5.5449141 v 5.5449141 h -0.94469 z"
           id="path135" /><path
           id="path132"
           style="font-size:10.5148px;font-family:'MS PGothic';-inkscape-font-specification:'MS PGothic, Normal';letter-spacing:-0.397448px;word-spacing:0.794896px;stroke-width:0.205565;stroke-miterlimit:1.4;paint-order:markers fill stroke"
           d="m 661.24382,-8.9803727 h 3.45017 c 0.54765,0 0.99945,0.1779849 1.35542,0.5339547 0.35597,0.3559698 0.53396,0.8488511 0.53396,1.4786438 0,0.6297927 -0.17799,1.1226739 -0.53396,1.4786437 -0.19167,0.1916761 -0.4655,0.3148964 -0.82147,0.369661 l 1.60187,3.1626547 h -1.02684 l -1.47864,-3.0394344 h -2.13582 v 3.0394344 h -0.94469 z m 0.94469,0.7803953 v 2.4233329 h 2.42333 c 0.27383,0 0.50658,-0.095838 0.69825,-0.2875141 0.19167,-0.1916761 0.28751,-0.4928813 0.28751,-0.9036156 0,-0.3833521 -0.10953,-0.6845574 -0.32858,-0.9036157 -0.21906,-0.2190583 -0.47919,-0.3285875 -0.7804,-0.3285875 z" /><path
           style="font-size:10.5148px;font-family:'MS PGothic';-inkscape-font-specification:'MS PGothic, Normal';letter-spacing:-0.397448px;word-spacing:0.794896px;stroke-width:0.205565;stroke-miterlimit:1.4;paint-order:markers fill stroke"
           d="m 655.52133,-8.9392987 h 4.51808 v 0.7803953 h -3.57339 v 2.1768922 h 3.32695 v 0.7803953 h -3.32695 v 2.5054797 h 3.77875 v 0.7803953 h -4.72344 z"
           id="path131" /><path
           style="font-size:10.5148px;font-family:'MS PGothic';-inkscape-font-specification:'MS PGothic, Normal';letter-spacing:-0.397448px;word-spacing:0.794896px;stroke-width:0.205565;stroke-miterlimit:1.4;paint-order:markers fill stroke"
           d="m 649.96313,-8.9392987 h 4.51808 v 0.7803953 h -3.57339 v 2.1768922 h 3.32695 v 0.7803953 h -3.32695 v 2.5054797 h 3.77876 v 0.7803953 h -4.72345 z"
           id="path130" /><path
           style="font-size:10.5148px;font-family:'MS PGothic';-inkscape-font-specification:'MS PGothic, Normal';letter-spacing:-0.397448px;word-spacing:0.794896px;stroke-width:0.205565;stroke-miterlimit:1.4;paint-order:markers fill stroke"
           d="m 643.6656,-8.9392987 h 1.02683 l 3.28588,5.5449141 v -5.5449141 h 0.94469 v 7.0235578 h -1.02684 l -3.28587,-5.5449141 v 5.5449141 h -0.94469 z"
           id="path129" /><path
           style="font-size:10.5148px;font-family:'MS PGothic';-inkscape-font-specification:'MS PGothic, Normal';letter-spacing:-0.397448px;word-spacing:0.794896px;stroke-width:0.205565;stroke-miterlimit:1.4;paint-order:markers fill stroke"
           d="m 641.55804,-8.9392987 h 0.944 v 7.0235578 h -0.944 z"
           id="path128" /><path
           style="font-size:10.5148px;font-family:'MS PGothic';-inkscape-font-specification:'MS PGothic, Normal';letter-spacing:-0.397448px;word-spacing:0.794896px;stroke-width:0.205565;stroke-miterlimit:1.4;paint-order:markers fill stroke"
           d="m 634.64395,-5.4069831 c 0,-1.2048209 0.3149,-2.1221276 0.94469,-2.7519203 0.57503,-0.5750281 1.27328,-0.8625422 2.09475,-0.8625422 0.82147,0 1.49233,0.2601318 2.01259,0.7803953 0.43812,0.4381167 0.67087,0.9720714 0.69825,1.6018641 h -0.98576 c -0.0274,-0.465499 -0.19169,-0.8488511 -0.49288,-1.1500563 -0.30121,-0.3012052 -0.71194,-0.4518078 -1.2322,-0.4518078 -0.52027,0 -0.95838,0.1779849 -1.31435,0.5339547 -0.49289,0.4928813 -0.73933,1.2595854 -0.73933,2.3001125 0,0.9857625 0.26013,1.7387756 0.7804,2.2590391 0.35597,0.3559698 0.84885,0.5339547 1.47864,0.5339547 0.4655,0 0.84885,-0.1506026 1.15006,-0.4518078 0.30121,-0.3012053 0.47919,-0.6161016 0.53395,-0.9446891 v -0.657175 h -1.19113 v -0.7803953 h 2.13582 v 3.6144625 h -0.69825 l -0.24644,-0.6982484 c -0.46549,0.4654989 -1.05421,0.6982484 -1.76615,0.6982484 -0.87623,0 -1.58817,-0.2738229 -2.13582,-0.8214688 -0.68456,-0.6845573 -1.02684,-1.601864 -1.02684,-2.7519203 z"
           id="path127" /><path
           style="font-size:10.5148px;font-family:'MS PGothic';-inkscape-font-specification:'MS PGothic, Normal';letter-spacing:-0.397448px;word-spacing:0.794896px;stroke-width:0.205565;stroke-miterlimit:1.4;paint-order:markers fill stroke"
           d="m 628.38749,-8.9392987 h 1.02684 l 3.28587,5.5449141 v -5.5449141 h 0.94469 v 7.0235578 h -1.02684 l -3.28587,-5.5449141 v 5.5449141 h -0.94469 z"
           id="path126" /><path
           style="font-size:10.5148px;font-family:'MS PGothic';-inkscape-font-specification:'MS PGothic, Normal';letter-spacing:-0.397448px;word-spacing:0.794896px;stroke-width:0.205565;stroke-miterlimit:1.4;paint-order:markers fill stroke"
           d="m 622.78822,-8.9392987 h 4.51808 v 0.7803953 h -3.57339 v 2.1768922 h 3.32695 v 0.7803953 h -3.32695 v 2.5054797 h 3.77876 v 0.7803953 h -4.72345 z"
           id="path125" /><path
           id="path122"
           style="font-size:10.5148px;font-family:'MS PGothic';-inkscape-font-specification:'MS PGothic, Normal';letter-spacing:-0.397448px;word-spacing:0.794896px;stroke-width:0.205565;stroke-miterlimit:1.4;paint-order:markers fill stroke"
           d="m 613.83422,-7.3374347 c 0,-0.4654989 0.16429,-0.8625422 0.49288,-1.1911297 0.32859,-0.3285875 0.69825,-0.4928812 1.10898,-0.4928812 0.4655,0 0.83516,0.1369115 1.10898,0.4107344 0.30121,0.3012052 0.45181,0.6708661 0.45181,1.1089828 0,0.4928813 -0.16429,0.9036156 -0.49288,1.2322031 -0.24644,0.2464407 -0.60241,0.4791902 -1.06791,0.6982485 0.73932,0.9857625 1.34173,1.6155552 1.80723,1.8893781 0.16429,-0.3012052 0.24644,-0.7393219 0.24644,-1.31435 h 0.86255 c -0.0274,0.6297927 -0.178,1.2322031 -0.45181,1.8072312 0.32859,0.2190583 0.62979,0.369661 0.90361,0.4518079 l -0.32858,0.8214687 c -0.19168,-0.054765 -0.56134,-0.273823 -1.10899,-0.657175 -0.52026,0.4928813 -1.21851,0.7393219 -2.09474,0.7393219 -0.73933,0 -1.30066,-0.191676 -1.68401,-0.5750281 -0.38335,-0.3833521 -0.57503,-0.8214688 -0.57503,-1.31435 0,-0.5750281 0.21906,-1.0816005 0.65717,-1.5197172 0.19168,-0.1916761 0.43812,-0.3833521 0.73933,-0.5750282 -0.38335,-0.5750281 -0.57503,-1.0816005 -0.57503,-1.5197172 z m 1.56079,-0.944689 c -0.19168,0 -0.35597,0.068456 -0.49288,0.2053672 -0.16429,0.1642937 -0.24644,0.4244255 -0.24644,0.7803953 0,0.3285875 0.13691,0.7119395 0.41073,1.1500562 0.32859,-0.1642937 0.57503,-0.3285875 0.73932,-0.4928812 0.24644,-0.2464407 0.36966,-0.5202636 0.36966,-0.8214688 0,-0.2464406 -0.0821,-0.4518078 -0.24644,-0.6161015 -0.13691,-0.1369115 -0.31489,-0.2053672 -0.53395,-0.2053672 z m -1.02684,3.3680219 c -0.30121,0.3012052 -0.45181,0.6982484 -0.45181,1.1911297 0,0.3012052 0.10953,0.561337 0.32859,0.7803953 0.24644,0.2464406 0.58872,0.3696609 1.02684,0.3696609 0.62979,0 1.12267,-0.1642937 1.47864,-0.4928812 -0.68455,-0.6024105 -1.34173,-1.3280412 -1.97152,-2.1768922 -0.13691,0.082147 -0.27383,0.191676 -0.41074,0.3285875 z" /><path
           style="font-size:10.5148px;font-family:'MS PGothic';-inkscape-font-specification:'MS PGothic, Normal';letter-spacing:-0.397448px;word-spacing:0.794896px;stroke-width:0.205565;stroke-miterlimit:1.4;paint-order:markers fill stroke"
           d="m 603.89445,-7.090994 c 0,-0.5202636 0.19167,-0.9720714 0.57502,-1.3554235 0.38335,-0.3833521 0.97207,-0.5750281 1.76616,-0.5750281 0.84885,0 1.49234,0.2190583 1.93045,0.657175 0.38335,0.3833521 0.57503,0.8351599 0.57503,1.3554234 h -0.94469 c 0,-0.3285875 -0.10953,-0.6024104 -0.32859,-0.8214687 -0.24644,-0.2464407 -0.62979,-0.369661 -1.15005,-0.369661 -0.57503,0 -0.97207,0.1095292 -1.19113,0.3285875 -0.19168,0.1916761 -0.28752,0.4107344 -0.28752,0.657175 0,0.2464407 0.0548,0.4244256 0.1643,0.5339547 0.13691,0.1369115 0.38335,0.2738229 0.73932,0.4107344 0.62979,0.2738229 1.34173,0.5887193 2.13582,0.9446891 0.21906,0.082147 0.42443,0.2190583 0.6161,0.4107344 0.30121,0.3012052 0.45181,0.657175 0.45181,1.0679093 0,0.5476459 -0.19168,1.0131448 -0.57503,1.3964969 -0.41073,0.4107344 -1.0816,0.6161016 -2.0126,0.6161016 -0.90361,0 -1.60186,-0.2464406 -2.09474,-0.7393219 -0.35597,-0.3559698 -0.53396,-0.8762333 -0.53396,-1.5607906 h 0.94469 c 0,0.4928813 0.10953,0.8488511 0.32859,1.0679094 0.30121,0.3012052 0.76671,0.4518078 1.3965,0.4518078 0.57503,0 0.99945,-0.1369115 1.27327,-0.4107344 0.21906,-0.2190583 0.32859,-0.4381167 0.32859,-0.657175 0,-0.2464406 -0.0821,-0.4518078 -0.24644,-0.6161016 -0.13691,-0.1369115 -0.35597,-0.2738229 -0.65718,-0.4107344 -0.27382,-0.1369114 -0.62979,-0.3012051 -1.06791,-0.4928812 -0.49288,-0.2190583 -0.88992,-0.3970432 -1.19113,-0.5339547 -0.21905,-0.082147 -0.41073,-0.2053672 -0.57502,-0.3696609 -0.24644,-0.2464407 -0.36966,-0.5750282 -0.36966,-0.9857625 z"
           id="path121" /><path
           style="font-size:10.5148px;font-family:'MS PGothic';-inkscape-font-specification:'MS PGothic, Normal';letter-spacing:-0.397448px;word-spacing:0.794896px;stroke-width:0.205565;stroke-miterlimit:1.4;paint-order:markers fill stroke"
           d="m 598.66483,-8.9392987 h 0.94469 v 6.2431625 h 3.77875 v 0.7803953 h -4.72344 z"
           id="path120" /><path
           id="path118"
           style="font-size:10.5148px;font-family:'MS PGothic';-inkscape-font-specification:'MS PGothic, Normal';letter-spacing:-0.397448px;word-spacing:0.794896px;stroke-width:0.205565;stroke-miterlimit:1.4;paint-order:markers fill stroke"
           d="m 591.42262,-5.4480565 c 0,-1.1500563 0.32859,-2.0536719 0.98576,-2.7108469 0.57503,-0.5750281 1.27328,-0.8625422 2.09475,-0.8625422 0.82147,0 1.51971,0.2875141 2.09474,0.8625422 0.65717,0.657175 0.98576,1.5607906 0.98576,2.7108469 0,1.1500563 -0.32859,2.0536719 -0.98576,2.7108469 -0.57503,0.5750281 -1.27327,0.8625422 -2.09474,0.8625422 -0.82147,0 -1.51972,-0.2875141 -2.09475,-0.8625422 -0.65717,-0.657175 -0.98576,-1.5607906 -0.98576,-2.7108469 z m 3.08051,-2.7929938 c -0.52027,0 -0.98577,0.2053672 -1.3965,0.6161016 -0.4655,0.4654989 -0.69825,1.1911297 -0.69825,2.1768922 0,0.9857625 0.23275,1.7113932 0.69825,2.1768922 0.41073,0.4107343 0.87623,0.6161015 1.3965,0.6161015 0.52026,0 0.98576,-0.2053672 1.39649,-0.6161015 0.4655,-0.465499 0.69825,-1.1911297 0.69825,-2.1768922 0,-0.9857625 -0.23275,-1.7113933 -0.69825,-2.1768922 -0.41073,-0.4107344 -0.87623,-0.6161016 -1.39649,-0.6161016 z" /><path
           id="path116"
           style="font-size:10.5148px;font-family:'MS PGothic';-inkscape-font-specification:'MS PGothic, Normal';letter-spacing:-0.397448px;word-spacing:0.794896px;stroke-width:0.205565;stroke-miterlimit:1.4;paint-order:markers fill stroke"
           d="m 584.38578,-5.4480565 c 0,-1.1500563 0.32859,-2.0536719 0.98576,-2.7108469 0.57503,-0.5750281 1.27327,-0.8625422 2.09474,-0.8625422 0.82147,0 1.51972,0.2875141 2.09475,0.8625422 0.65717,0.657175 0.98576,1.5607906 0.98576,2.7108469 0,1.1500563 -0.32859,2.0536719 -0.98576,2.7108469 -0.57503,0.5750281 -1.27328,0.8625422 -2.09475,0.8625422 -0.82147,0 -1.51971,-0.2875141 -2.09474,-0.8625422 -0.65717,-0.657175 -0.98576,-1.5607906 -0.98576,-2.7108469 z m 3.0805,-2.7929938 c -0.52026,0 -0.98576,0.2053672 -1.39649,0.6161016 -0.4655,0.4654989 -0.69825,1.1911297 -0.69825,2.1768922 0,0.9857625 0.23275,1.7113932 0.69825,2.1768922 0.41073,0.4107343 0.87623,0.6161015 1.39649,0.6161015 0.52027,0 0.98577,-0.2053672 1.3965,-0.6161015 0.4655,-0.465499 0.69825,-1.1911297 0.69825,-2.1768922 0,-0.9857625 -0.23275,-1.7113933 -0.69825,-2.1768922 -0.41073,-0.4107344 -0.87623,-0.6161016 -1.3965,-0.6161016 z" /><path
           style="font-size:10.5148px;font-family:'MS PGothic';-inkscape-font-specification:'MS PGothic, Normal';letter-spacing:-0.397448px;word-spacing:0.794896px;stroke-width:0.205565;stroke-miterlimit:1.4;paint-order:markers fill stroke"
           d="m 578.25255,-8.9392987 h 5.62706 v 0.7803953 h -2.34119 v 6.2431625 h -0.94469 v -6.2431625 h -2.34118 z"
           id="path115" /><path
           style="font-size:10.5148px;font-family:'MS PGothic';-inkscape-font-specification:'MS PGothic, Normal';letter-spacing:-0.397448px;word-spacing:0.794896px;stroke-width:0.205565;stroke-miterlimit:1.4;paint-order:markers fill stroke"
           d="m 569.91464,-8.9392987 h 0.94469 v 6.2431625 h 3.77875 v 0.7803953 h -4.72344 z"
           id="path114" /><path
           id="path112"
           style="font-size:10.5148px;font-family:'MS PGothic';-inkscape-font-specification:'MS PGothic, Normal';letter-spacing:-0.397448px;word-spacing:0.794896px;stroke-width:0.205565;stroke-miterlimit:1.4;paint-order:markers fill stroke"
           d="m 562.95994,-1.9157409 2.793,-7.1057047 h 0.82146 l 2.793,7.1057047 h -0.98576 l -0.86255,-2.1358187 h -2.71084 l -0.86255,2.1358187 z m 3.20373,-5.7502813 -1.06791,2.8340672 h 2.13582 z" /><path
           style="font-size:10.5148px;font-family:'MS PGothic';-inkscape-font-specification:'MS PGothic, Normal';letter-spacing:-0.397448px;word-spacing:0.794896px;stroke-width:0.205565;stroke-miterlimit:1.4;paint-order:markers fill stroke"
           d="m 557.23745,-8.9392987 h 1.02683 l 3.28588,5.5449141 v -5.5449141 h 0.94469 v 7.0235578 h -1.02684 l -3.28587,-5.5449131 v 5.5449141 h -0.94469 z"
           id="path111" /><path
           id="path109"
           style="font-size:10.5148px;font-family:'MS PGothic';-inkscape-font-specification:'MS PGothic, Normal';letter-spacing:-0.397448px;word-spacing:0.794896px;stroke-width:0.205565;stroke-miterlimit:1.4;paint-order:markers fill stroke"
           d="m 551.18636,-8.9803722 h 3.45017 c 0.54765,0 0.99945,0.1779849 1.35542,0.5339547 0.35597,0.3559698 0.53396,0.8488511 0.53396,1.4786438 0,0.6297927 -0.17799,1.1226739 -0.53396,1.4786437 -0.19167,0.1916761 -0.46549,0.3148964 -0.82146,0.369661 l 1.60186,3.1626547 h -1.02684 l -1.47864,-3.0394344 h -2.13582 v 3.0394344 h -0.94469 z m 0.94469,0.7803953 v 2.4233329 h 2.42333 c 0.27383,0 0.50658,-0.095838 0.69825,-0.2875141 0.19168,-0.1916761 0.28752,-0.4928813 0.28752,-0.9036156 0,-0.3833521 -0.10953,-0.6845574 -0.32859,-0.9036157 -0.21906,-0.2190583 -0.47919,-0.3285875 -0.7804,-0.3285875 z" /><path
           style="font-size:10.5148px;font-family:'MS PGothic';-inkscape-font-specification:'MS PGothic, Normal';letter-spacing:-0.397448px;word-spacing:0.794896px;stroke-width:0.205565;stroke-miterlimit:1.4;paint-order:markers fill stroke"
           d="m 545.46387,-8.9392982 h 4.51808 v 0.7803953 h -3.57339 v 2.1768922 h 3.32695 v 0.7803953 h -3.32695 v 2.5054797 h 3.77876 v 0.7803953 h -4.72345 z"
           id="path108" /><path
           style="font-size:10.5148px;font-family:'MS PGothic';-inkscape-font-specification:'MS PGothic, Normal';letter-spacing:-0.397448px;word-spacing:0.794896px;stroke-width:0.205565;stroke-miterlimit:1.4;paint-order:markers fill stroke"
           d="m 539.2485,-8.9392982 h 5.62706 v 0.7803953 h -2.34119 v 6.2431625 h -0.94469 v -6.2431625 h -2.34118 z"
           id="path107" /><path
           style="font-size:10.5148px;font-family:'MS PGothic';-inkscape-font-specification:'MS PGothic, Normal';letter-spacing:-0.397448px;word-spacing:0.794896px;stroke-width:0.205565;stroke-miterlimit:1.4;paint-order:markers fill stroke"
           d="m 535.70289,-5.5712763 -2.21796,-3.3680219 h 1.0679 l 1.64294,2.5876265 1.64294,-2.5876265 h 1.06791 l -2.21797,3.3680219 2.42334,3.6555359 h -1.06791 l -1.84831,-2.8751406 -1.8483,2.8751406 h -1.06791 z"
           id="path106" /><path
           style="font-size:10.5148px;font-family:'MS PGothic';-inkscape-font-specification:'MS PGothic, Normal';letter-spacing:-0.397448px;word-spacing:0.794896px;stroke-width:0.205565;stroke-miterlimit:1.4;paint-order:markers fill stroke"
           d="m 528.17317,-8.9392982 h 4.51808 v 0.7803953 h -3.57339 v 2.1768922 h 3.32695 v 0.7803953 h -3.32695 v 2.5054797 h 3.77875 v 0.7803953 h -4.72344 z"
           id="path105" /><path
           id="path103"
           style="font-size:10.5148px;font-family:'MS PGothic';-inkscape-font-specification:'MS PGothic, Normal';letter-spacing:-0.397448px;word-spacing:0.794896px;stroke-width:0.205565;stroke-miterlimit:1.4;paint-order:markers fill stroke"
           d="m 513.34594,-8.9803717 h 3.45017 c 0.54765,0 0.99945,0.1779849 1.35542,0.5339547 0.35597,0.3559698 0.53396,0.8488511 0.53396,1.4786438 0,0.6297927 -0.17799,1.1226739 -0.53396,1.4786437 -0.19167,0.1916761 -0.46549,0.3148964 -0.82146,0.369661 l 1.60186,3.1626547 h -1.02684 l -1.47864,-3.0394344 h -2.13582 v 3.0394344 h -0.94469 z m 0.94469,0.7803953 v 2.4233329 h 2.42333 c 0.27383,0 0.50658,-0.095838 0.69825,-0.2875141 0.19168,-0.1916761 0.28752,-0.4928813 0.28752,-0.9036156 0,-0.3833521 -0.10953,-0.6845574 -0.32859,-0.9036157 -0.21906,-0.2190583 -0.47919,-0.3285875 -0.7804,-0.3285875 z" /><path
           style="font-size:10.5148px;font-family:'MS PGothic';-inkscape-font-specification:'MS PGothic, Normal';letter-spacing:-0.397448px;word-spacing:0.794896px;stroke-width:0.205565;stroke-miterlimit:1.4;paint-order:markers fill stroke"
           d="m 507.62345,-8.9392977 h 4.51808 v 0.7803953 h -3.57339 v 2.1768922 h 3.32695 v 0.7803953 h -3.32695 v 2.5054797 h 3.77875 v 0.7803953 h -4.72344 z"
           id="path102" /><path
           style="font-size:10.5148px;font-family:'MS PGothic';-inkscape-font-specification:'MS PGothic, Normal';letter-spacing:-0.397448px;word-spacing:0.794896px;stroke-width:0.205565;stroke-miterlimit:1.4;paint-order:markers fill stroke"
           d="m 501.20271,-8.9392977 h 0.98576 l 2.0126,3.2037281 2.0126,-3.2037281 h 0.98576 l -2.50548,3.9019765 v 3.1215813 h -0.94469 v -3.1215813 z"
           id="path101" /><path
           style="font-size:10.5148px;font-family:'MS PGothic';-inkscape-font-specification:'MS PGothic, Normal';letter-spacing:-0.397448px;word-spacing:0.794896px;stroke-width:0.205565;stroke-miterlimit:1.4;paint-order:markers fill stroke"
           d="m 496.26061,-8.9392977 h 4.51807 v 0.7803953 h -3.57338 v 2.1768922 h 3.32694 v 0.7803953 h -3.32694 v 2.5054797 h 3.77875 v 0.7803953 h -4.72344 z"
           id="path100" /><path
           style="font-size:10.5148px;font-family:'MS PGothic';-inkscape-font-specification:'MS PGothic, Normal';letter-spacing:-0.397448px;word-spacing:0.794896px;stroke-width:0.205565;stroke-miterlimit:1.4;paint-order:markers fill stroke"
           d="m 488.89518,-8.9392977 h 1.27327 l 1.88938,5.4627672 1.88938,-5.4627672 h 1.27327 v 7.0235578 h -0.94468 v -5.3806203 l -1.88938,5.3806203 h -0.65718 l -1.88938,-5.3806203 v 5.3806203 h -0.94468 z"
           id="text10-0" /><path
           style="font-size:10.5148px;font-family:'MS PGothic';-inkscape-font-specification:'MS PGothic, Normal';letter-spacing:-0.397448px;word-spacing:0.794896px;stroke-width:0.205565;stroke-miterlimit:1.4;paint-order:markers fill stroke"
           d="m 667.37739,-8.9392987 h 0.944 v 7.0235578 h -0.944 z"
           id="path137" /><path
           style="font-size:10.5148px;font-family:'MS PGothic';-inkscape-font-specification:'MS PGothic, Normal';letter-spacing:-0.397448px;word-spacing:0.794896px;stroke-width:0.205565;stroke-miterlimit:1.4;paint-order:markers fill stroke"
           d="m 603.89445,-7.090994 c 0,-0.5202636 0.19167,-0.9720714 0.57502,-1.3554235 0.38335,-0.3833521 0.97207,-0.5750281 1.76616,-0.5750281 0.84885,0 1.49234,0.2190583 1.93045,0.657175 0.38335,0.3833521 0.57503,0.8351599 0.57503,1.3554234 h -0.94469 c 0,-0.3285875 -0.10953,-0.6024104 -0.32859,-0.8214687 -0.24644,-0.2464407 -0.62979,-0.369661 -1.15005,-0.369661 -0.57503,0 -0.97207,0.1095292 -1.19113,0.3285875 -0.19168,0.1916761 -0.28752,0.4107344 -0.28752,0.657175 0,0.2464407 0.0548,0.4244256 0.1643,0.5339547 0.13691,0.1369115 0.38335,0.2738229 0.73932,0.4107344 0.62979,0.2738229 1.34173,0.5887193 2.13582,0.9446891 0.21906,0.082147 0.42443,0.2190583 0.6161,0.4107344 0.30121,0.3012052 0.45181,0.657175 0.45181,1.0679093 0,0.5476459 -0.19168,1.0131448 -0.57503,1.3964969 -0.41073,0.4107344 -1.0816,0.6161016 -2.0126,0.6161016 -0.90361,0 -1.60186,-0.2464406 -2.09474,-0.7393219 -0.35597,-0.3559698 -0.53396,-0.8762333 -0.53396,-1.5607906 h 0.94469 c 0,0.4928813 0.10953,0.8488511 0.32859,1.0679094 0.30121,0.3012052 0.76671,0.4518078 1.3965,0.4518078 0.57503,0 0.99945,-0.1369115 1.27327,-0.4107344 0.21906,-0.2190583 0.32859,-0.4381167 0.32859,-0.657175 0,-0.2464406 -0.0821,-0.4518078 -0.24644,-0.6161016 -0.13691,-0.1369115 -0.35597,-0.2738229 -0.65718,-0.4107344 -0.27382,-0.1369114 -0.62979,-0.3012051 -1.06791,-0.4928812 -0.49288,-0.2190583 -0.88992,-0.3970432 -1.19113,-0.5339547 -0.21905,-0.082147 -0.41073,-0.2053672 -0.57502,-0.3696609 -0.24644,-0.2464407 -0.36966,-0.5750282 -0.36966,-0.9857625 z"
           id="path1" /><path
           style="font-size:10.5148px;font-family:'MS PGothic';-inkscape-font-specification:'MS PGothic, Normal';letter-spacing:-0.397448px;word-spacing:0.794896px;stroke-width:0.205565;stroke-miterlimit:1.4;paint-order:markers fill stroke"
           d="m 519.43811,-7.1320669 c 0,-0.5202636 0.19167,-0.9720714 0.57502,-1.3554235 0.38335,-0.3833521 0.97207,-0.5750281 1.76616,-0.5750281 0.84885,0 1.49234,0.2190583 1.93045,0.657175 0.38335,0.3833521 0.57503,0.8351599 0.57503,1.3554234 h -0.94469 c 0,-0.3285875 -0.10953,-0.6024104 -0.32859,-0.8214687 -0.24644,-0.2464407 -0.62979,-0.369661 -1.15005,-0.369661 -0.57503,0 -0.97207,0.1095292 -1.19113,0.3285875 -0.19168,0.1916761 -0.28752,0.4107344 -0.28752,0.657175 0,0.2464407 0.0548,0.4244256 0.1643,0.5339547 0.13691,0.1369115 0.38335,0.2738229 0.73932,0.4107344 0.62979,0.2738229 1.34173,0.5887193 2.13582,0.9446891 0.21906,0.082147 0.42443,0.2190583 0.6161,0.4107344 0.30121,0.3012052 0.45181,0.657175 0.45181,1.0679093 0,0.5476459 -0.19168,1.0131448 -0.57503,1.3964969 -0.41073,0.4107344 -1.0816,0.6161016 -2.0126,0.6161016 -0.90361,0 -1.60186,-0.2464406 -2.09474,-0.7393219 -0.35597,-0.3559698 -0.53396,-0.8762333 -0.53396,-1.5607906 h 0.94469 c 0,0.4928813 0.10953,0.8488511 0.32859,1.0679094 0.30121,0.3012052 0.76671,0.4518078 1.3965,0.4518078 0.57503,0 0.99945,-0.1369115 1.27327,-0.4107344 0.21906,-0.2190583 0.32859,-0.4381167 0.32859,-0.657175 0,-0.2464406 -0.0821,-0.4518078 -0.24644,-0.6161016 -0.13691,-0.1369115 -0.35597,-0.2738229 -0.65718,-0.4107344 -0.27382,-0.1369114 -0.62979,-0.3012051 -1.06791,-0.4928812 -0.49288,-0.2190583 -0.88992,-0.3970432 -1.19113,-0.5339547 -0.21905,-0.082147 -0.41073,-0.2053672 -0.57502,-0.3696609 -0.24644,-0.2464407 -0.36966,-0.5750282 -0.36966,-0.9857625 z"
           id="path3" /></g></g></g></svg>
